<?xml version="1.0" encoding="UTF-8" standalone="no"?>
<svg width="129px" height="50px" viewBox="0 0 129 50" version="1.1" xmlns="http://www.w3.org/2000/svg" xmlns:xlink="http://www.w3.org/1999/xlink">
    <!-- Generator: Sketch 3.7.1 (28215) - http://www.bohemiancoding.com/sketch -->
    <title>marks-logo</title>
    <desc>Created with Sketch.</desc>
    <defs>
        <text id="text-1" font-family="AppleSDGothicNeo-Bold, Apple SD Gothic Neo" font-size="36" font-weight="bold" letter-spacing="2">
            <tspan x="19.99" y="37" fill="#7B6B99">m</tspan>
            <tspan x="52.374" y="37" fill="#000000">ark</tspan>
            <tspan x="108.99" y="37" fill="#000000">s</tspan>
        </text>
        <filter x="-50%" y="-50%" width="200%" height="200%" filterUnits="objectBoundingBox" id="filter-2">
            <feOffset dx="0" dy="2" in="SourceAlpha" result="shadowOffsetOuter1"></feOffset>
            <feGaussianBlur stdDeviation="3.5" in="shadowOffsetOuter1" result="shadowBlurOuter1"></feGaussianBlur>
            <feColorMatrix values="0 0 0 0 0.482352941   0 0 0 0 0.419607843   0 0 0 0 0.6  0 0 0 1 0" type="matrix" in="shadowBlurOuter1"></feColorMatrix>
        </filter>
    </defs>
    <g id="Page-1" stroke="none" stroke-width="1" fill="none" fill-rule="evenodd">
        <g id="marks-logo" transform="translate(-14.000000, -1.000000)" fill="#7B6B99">
            <polygon id="Star-1" points="117.577868 27.728094 110.879138 50.9982942 116.712968 27.4963448 99.2765978 44.2995644 116.079817 26.8631941 92.577868 32.697024 115.848068 25.9982942 92.577868 19.2995644 116.079817 25.1333943 99.2765978 7.69702403 116.712968 24.5002436 110.879138 0.998294219 117.577868 24.2684944 124.276598 0.998294219 118.442768 24.5002436 135.879138 7.69702403 119.075919 25.1333943 142.577868 19.2995644 119.307668 25.9982942 142.577868 32.697024 119.075919 26.8631941 135.879138 44.2995644 118.442768 27.4963448 124.276598 50.9982942"></polygon>
            <g id="marks" style="mix-blend-mode: multiply;" fill-opacity="1">
                <use filter="url(#filter-2)" xlink:href="#text-1"></use>
                <use xlink:href="#text-1"></use>
            </g>
        </g>
    </g>
</svg>